<svg height="464pt" viewBox="0 0 464 464" width="464pt" xmlns="http://www.w3.org/2000/svg"><path d="m32 24h400v440h-400zm0 0" fill="#b2b2af"/><path d="m96 384v80h272v-80l-136-16zm0 0" fill="#ededeb"/><path d="m360 392v-8h-256v79.121094c77.230469-46.660156 165.769531-71.257813 256-71.121094zm0 0" fill="#ddddd9"/><path d="m192 336h80v128h-80zm0 0" fill="#a3724a"/><path d="m88 272h48v48h-48zm0 0" fill="#9fccdb"/><path d="m136 272h48v48h-48zm0 0" fill="#71a2af"/><path d="m184 272h48v48h-48zm0 0" fill="#9fccdb"/><path d="m232 272h48v48h-48zm0 0" fill="#71a2af"/><path d="m280 272h48v48h-48zm0 0" fill="#9fccdb"/><path d="m328 272h48v48h-48zm0 0" fill="#71a2af"/><path d="m40 240h384v32h-384zm0 0" fill="#ededeb"/><path d="m88 192h48v48h-48zm0 0" fill="#71a2af"/><path d="m136 192h48v48h-48zm0 0" fill="#9fccdb"/><path d="m184 192h48v48h-48zm0 0" fill="#71a2af"/><path d="m232 192h48v48h-48zm0 0" fill="#9fccdb"/><path d="m280 192h48v48h-48zm0 0" fill="#71a2af"/><path d="m328 192h48v48h-48zm0 0" fill="#9fccdb"/><path d="m40 160h384v32h-384zm0 0" fill="#ededeb"/><path d="m88 112h48v48h-48zm0 0" fill="#9fccdb"/><path d="m136 112h48v48h-48zm0 0" fill="#71a2af"/><path d="m184 112h48v48h-48zm0 0" fill="#9fccdb"/><path d="m232 112h48v48h-48zm0 0" fill="#71a2af"/><path d="m280 112h48v48h-48zm0 0" fill="#9fccdb"/><path d="m328 112h48v48h-48zm0 0" fill="#71a2af"/><path d="m40 80h384v32h-384zm0 0" fill="#ededeb"/><path d="m96 384h16v80h-16zm0 0" fill="#a3724a"/><path d="m136 384h16v80h-16zm0 0" fill="#a3724a"/><path d="m312 384h16v80h-16zm0 0" fill="#a3724a"/><path d="m352 384h16v80h-16zm0 0" fill="#a3724a"/><path d="m88 32h48v48h-48zm0 0" fill="#71a2af"/><path d="m136 32h48v48h-48zm0 0" fill="#9fccdb"/><path d="m184 32h48v48h-48zm0 0" fill="#71a2af"/><path d="m232 32h48v48h-48zm0 0" fill="#9fccdb"/><path d="m280 32h48v48h-48zm0 0" fill="#71a2af"/><path d="m328 32h48v48h-48zm0 0" fill="#9fccdb"/><path d="m0 0h464v32h-464zm0 0" fill="#ffc933"/><path d="m424 32h32v432h-32zm0 0" fill="#666"/><path d="m8 32h32v432h-32zm0 0" fill="#666"/><path d="m376 272h48v48h-48zm0 0" fill="#9fccdb"/><path d="m376 192h48v48h-48zm0 0" fill="#71a2af"/><path d="m376 112h48v48h-48zm0 0" fill="#9fccdb"/><path d="m376 32h48v48h-48zm0 0" fill="#71a2af"/><path d="m40 272h48v48h-48zm0 0" fill="#71a2af"/><path d="m40 192h48v48h-48zm0 0" fill="#9fccdb"/><path d="m40 112h48v48h-48zm0 0" fill="#71a2af"/><path d="m176 384h16v80h-16zm0 0" fill="#a3724a"/><path d="m272 384h16v80h-16zm0 0" fill="#a3724a"/><path d="m96 454.871094v9.128906h16v-19.039062c-4.210938 4.84375-9.789062 8.296874-16 9.910156zm0 0" fill="#8c603e"/><path d="m136 454.871094v9.128906h16v-19.039062c-4.210938 4.84375-9.789062 8.296874-16 9.910156zm0 0" fill="#8c603e"/><path d="m176 454.871094v9.128906h16v-19.039062c-4.210938 4.84375-9.789062 8.296874-16 9.910156zm0 0" fill="#8c603e"/><path d="m272 454.871094v9.128906h16v-19.039062c-4.210938 4.84375-9.789062 8.296874-16 9.910156zm0 0" fill="#8c603e"/><path d="m352 454.871094v9.128906h16v-19.039062c-4.210938 4.84375-9.789062 8.296874-16 9.910156zm0 0" fill="#8c603e"/><path d="m312 454.871094v9.128906h16v-19.039062c-4.210938 4.84375-9.789062 8.296874-16 9.910156zm0 0" fill="#8c603e"/><path d="m40 320h384v32h-384zm0 0" fill="#ededeb"/><path d="m424 352v-32h-4.960938c-32.785156 13.472656-66.640624 24.175781-101.214843 32zm0 0" fill="#ddddd9"/><path d="m192 336h80v128h-80zm0 0" fill="#9fccdb"/><path d="m232 336h40v128h-40zm0 0" fill="#71a2af"/><path d="m424 272v-32h-4.960938c-32.785156 13.472656-66.640624 24.175781-101.214843 32zm0 0" fill="#ddddd9"/><path d="m424 192v-32h-4.960938c-32.785156 13.472656-66.640624 24.175781-101.214843 32zm0 0" fill="#ddddd9"/><path d="m424 112v-32h-4.960938c-32.785156 13.472656-66.640624 24.175781-101.214843 32zm0 0" fill="#ddddd9"/><path d="m464 32v-32h-4.960938c-32.785156 13.472656-66.640624 24.175781-101.214843 32zm0 0" fill="#eab328"/><path d="m40 32h48v48h-48zm0 0" fill="#9fccdb"/><g fill="#91bbc6"><path d="m40 80h48v-27.265625c-10.085938 16.90625-28.316406 27.261719-48 27.265625zm0 0"/><path d="m136 80h48v-27.265625c-10.085938 16.90625-28.316406 27.261719-48 27.265625zm0 0"/><path d="m232 80h48v-27.265625c-10.085938 16.90625-28.316406 27.261719-48 27.265625zm0 0"/><path d="m328 80h48v-27.265625c-10.085938 16.90625-28.316406 27.261719-48 27.265625zm0 0"/><path d="m88 160h48v-27.265625c-10.085938 16.90625-28.316406 27.261719-48 27.265625zm0 0"/><path d="m184 160h48v-27.265625c-10.085938 16.90625-28.316406 27.261719-48 27.265625zm0 0"/><path d="m280 160h48v-27.265625c-10.085938 16.90625-28.316406 27.261719-48 27.265625zm0 0"/><path d="m376 160h48v-27.265625c-10.085938 16.90625-28.316406 27.261719-48 27.265625zm0 0"/><path d="m40 240h48v-27.265625c-10.085938 16.90625-28.316406 27.261719-48 27.265625zm0 0"/><path d="m136 240h48v-27.265625c-10.085938 16.90625-28.316406 27.261719-48 27.265625zm0 0"/><path d="m232 240h48v-27.265625c-10.085938 16.90625-28.316406 27.261719-48 27.265625zm0 0"/><path d="m328 240h48v-27.265625c-10.085938 16.90625-28.316406 27.261719-48 27.265625zm0 0"/><path d="m88 320h48v-27.265625c-10.085938 16.90625-28.316406 27.261719-48 27.265625zm0 0"/><path d="m184 320h48v-27.265625c-10.085938 16.90625-28.316406 27.261719-48 27.265625zm0 0"/><path d="m280 320h48v-27.265625c-10.085938 16.90625-28.316406 27.261719-48 27.265625zm0 0"/><path d="m376 320h48v-27.265625c-10.085938 16.90625-28.316406 27.261719-48 27.265625zm0 0"/></g><path d="m40 160h48v-27.265625c-10.085938 16.90625-28.316406 27.261719-48 27.265625zm0 0" fill="#64939b"/><path d="m136 160h48v-27.265625c-10.085938 16.90625-28.316406 27.261719-48 27.265625zm0 0" fill="#64939b"/><path d="m232 160h48v-27.265625c-10.085938 16.90625-28.316406 27.261719-48 27.265625zm0 0" fill="#64939b"/><path d="m328 160h48v-27.265625c-10.085938 16.90625-28.316406 27.261719-48 27.265625zm0 0" fill="#64939b"/><path d="m40 320h48v-27.265625c-10.085938 16.90625-28.316406 27.261719-48 27.265625zm0 0" fill="#64939b"/><path d="m136 320h48v-27.265625c-10.085938 16.90625-28.316406 27.261719-48 27.265625zm0 0" fill="#64939b"/><path d="m232 320h48v-27.265625c-10.085938 16.90625-28.316406 27.261719-48 27.265625zm0 0" fill="#64939b"/><path d="m328 320h48v-27.265625c-10.085938 16.90625-28.316406 27.261719-48 27.265625zm0 0" fill="#64939b"/><path d="m88 240h48v-27.265625c-10.085938 16.90625-28.316406 27.261719-48 27.265625zm0 0" fill="#64939b"/><path d="m184 240h48v-27.265625c-10.085938 16.90625-28.316406 27.261719-48 27.265625zm0 0" fill="#64939b"/><path d="m280 240h48v-27.265625c-10.085938 16.90625-28.316406 27.261719-48 27.265625zm0 0" fill="#64939b"/><path d="m376 240h48v-27.265625c-10.085938 16.90625-28.316406 27.261719-48 27.265625zm0 0" fill="#64939b"/><path d="m88 80h48v-27.265625c-10.085938 16.90625-28.316406 27.261719-48 27.265625zm0 0" fill="#64939b"/><path d="m184 80h48v-27.265625c-10.085938 16.90625-28.316406 27.261719-48 27.265625zm0 0" fill="#64939b"/><path d="m280 80h48v-27.265625c-10.085938 16.90625-28.316406 27.261719-48 27.265625zm0 0" fill="#64939b"/><path d="m376 80h48v-27.265625c-10.085938 16.90625-28.316406 27.261719-48 27.265625zm0 0" fill="#64939b"/><path d="m120 384h72c.054688-3.960938.707031-7.890625 1.929688-11.65625-23.882813 7.730469-48.828126 11.664062-73.929688 11.65625zm0 0" fill="#e56107"/><path d="m272 399.945312v-63.945312h-80v85.238281c26.019531-9.332031 52.78125-16.457031 80-21.292969zm0 0" fill="#64939b"/><path d="m232 408.800781v-72.800781h-40v85.238281c13.089844-4.707031 26.421875-8.855469 40-12.4375zm0 0" fill="#91bbc6"/><path d="m232 288-136 96h96c0-22.089844 17.910156-40 40-40s40 17.910156 40 40h96zm0 0" fill="#ff7b03"/><path d="m280.609375 322.3125c-10.25 9.21875-21.273437 17.542969-32.945313 24.878906 14.757813 6.28125 24.335938 20.769532 24.335938 36.808594h96zm0 0" fill="#e56107"/></svg>