<svg height="483pt" viewBox="-1 0 483 483.252" width="483pt" xmlns="http://www.w3.org/2000/svg"><path d="m239.066406 479.253906h-223.902344c-6.097656 0-11.039062-4.945312-11.039062-11.039062v-261.292969c0-6.097656 4.941406-11.039063 11.039062-11.039063h223.898438v283.371094zm0 0" fill="#4671c6"/><path d="m462.964844 479.253906h-223.898438v-283.371094h223.898438c6.097656 0 11.039062 4.941407 11.039062 11.039063v261.289063c0 6.097656-4.941406 11.042968-11.039062 11.042968zm0 0" fill="#4671c6"/><path d="m239.066406 483.253906h-223.902344c-8.292968 0-15.039062-6.746094-15.039062-15.039062v-261.292969c0-8.292969 6.746094-15.039063 15.039062-15.039063h223.898438c2.210938 0 4 1.792969 4 4v283.367188c.003906 2.210938-1.789062 4.003906-3.996094 4.003906zm-223.902344-283.371094c-3.878906 0-7.039062 3.160157-7.039062 7.039063v261.289063c0 3.882812 3.160156 7.039062 7.039062 7.039062h219.898438v-275.367188zm0 0" fill="#3762cc"/><path d="m462.964844 483.253906h-223.898438c-2.207031 0-4-1.792968-4-4v-283.371094c0-2.207031 1.792969-4 4-4h223.898438c8.292968 0 15.039062 6.746094 15.039062 15.039063v261.289063c0 8.292968-6.746094 15.042968-15.039062 15.042968zm-219.898438-8h219.898438c3.882812 0 7.039062-3.160156 7.039062-7.039062v-261.292969c0-3.878906-3.15625-7.039063-7.039062-7.039063h-219.898438zm0 0" fill="#3762cc"/><path d="m27.988281 437.71875s216.308594-85.371094 211.105469 21.75h-211.105469zm0 0" fill="#e0ebfc"/><path d="m238.925781 214.019531v-3.171875h-.394531c-12.566406-87.058594-210.542969-8.933594-210.542969-8.933594v235.820313s202.757813-80.023437 210.9375 12.109375v-226.183594h.164063c.167968-3.40625.105468-6.613281-.164063-9.640625zm0 0" fill="#e0ebfc"/><path d="m450.378906 437.71875v21.75h-211.101562c-5.207032-107.121094 211.101562-21.75 211.101562-21.75zm0 0" fill="#e0ebfc"/><path d="m239.445312 214.019531v-3.171875h.390626c12.566406-87.058594 210.542968-8.933594 210.542968-8.933594v235.820313s-202.757812-80.023437-210.933594 12.109375v-226.183594h-.167968c-.164063-3.40625-.101563-6.613281.167968-9.640625zm0 0" fill="#e0ebfc"/><g fill="#b9befc"><path d="m57.628906 255.292969c-2.914062 0-5.640625-1.808594-6.648437-4.691407-1.269531-3.636718.675781-7.605468 4.347656-8.859374 51.3125-17.578126 120.816406-34.496094 160.570313-15.289063 3.492187 1.6875 4.941406 5.855469 3.238281 9.316406-1.703125 3.457031-5.914063 4.890625-9.410157 3.203125-37.277343-18.011718-109.855468 2.253906-149.796874 15.9375-.761719.261719-1.539063.382813-2.300782.382813zm0 0"/><path d="m57.628906 296.972656c-2.914062 0-5.640625-1.808594-6.648437-4.691406-1.269531-3.636719.675781-7.601562 4.347656-8.859375 51.3125-17.574219 120.816406-34.496094 160.570313-15.289063 3.492187 1.6875 4.941406 5.855469 3.238281 9.316407-1.703125 3.453125-5.914063 4.890625-9.410157 3.203125-37.277343-18.011719-109.855468 2.253906-149.796874 15.9375-.761719.257812-1.539063.382812-2.300782.382812zm0 0"/><path d="m57.628906 338.652344c-2.914062 0-5.640625-1.808594-6.648437-4.691406-1.269531-3.636719.675781-7.601563 4.347656-8.859376 51.3125-17.578124 120.816406-34.496093 160.570313-15.292968 3.492187 1.6875 4.941406 5.859375 3.238281 9.316406s-5.914063 4.894531-9.410157 3.207031c-37.277343-18.015625-109.855468 2.253907-149.796874 15.9375-.761719.257813-1.539063.382813-2.300782.382813zm0 0"/><path d="m57.628906 380.332031c-2.914062 0-5.640625-1.808593-6.648437-4.691406-1.269531-3.632813.675781-7.601563 4.347656-8.859375 51.3125-17.578125 120.816406-34.496094 160.570313-15.289062 3.492187 1.6875 4.941406 5.859374 3.238281 9.316406-1.703125 3.457031-5.914063 4.890625-9.410157 3.207031-37.277343-18.015625-109.855468 2.25-149.796874 15.933594-.761719.257812-1.539063.382812-2.300782.382812zm0 0"/><path d="m421.074219 255.292969c-.761719 0-1.539063-.125-2.296875-.386719-39.945313-13.683594-112.519532-33.949219-149.800782-15.9375-3.492187 1.6875-7.703124.253906-9.40625-3.203125-1.703124-3.460937-.257812-7.628906 3.238282-9.316406 39.75-19.207031 109.261718-2.289063 160.566406 15.289062 3.671875 1.257813 5.621094 5.226563 4.351562 8.859375-1.007812 2.886719-3.734374 4.695313-6.652343 4.695313zm0 0"/><path d="m421.074219 296.972656c-.761719 0-1.539063-.125-2.296875-.386718-39.945313-13.683594-112.519532-33.949219-149.800782-15.9375-3.492187 1.691406-7.703124.253906-9.40625-3.203126-1.703124-3.460937-.257812-7.628906 3.238282-9.316406 39.75-19.207031 109.261718-2.285156 160.566406 15.289063 3.671875 1.257812 5.621094 5.226562 4.351562 8.859375-1.007812 2.886718-3.734374 4.695312-6.652343 4.695312zm0 0"/><path d="m421.074219 338.652344c-.761719 0-1.539063-.125-2.296875-.386719-39.941406-13.683594-112.515625-33.949219-149.800782-15.9375-3.492187 1.6875-7.703124.253906-9.40625-3.203125-1.703124-3.460938-.257812-7.628906 3.238282-9.316406 39.746094-19.207032 109.257812-2.289063 160.566406 15.292968 3.671875 1.257813 5.621094 5.222657 4.351562 8.859376-1.007812 2.882812-3.734374 4.691406-6.652343 4.691406zm0 0"/><path d="m421.074219 380.332031c-.761719 0-1.539063-.125-2.296875-.386719-39.945313-13.679687-112.519532-33.949218-149.800782-15.933593-3.492187 1.6875-7.703124.25-9.40625-3.207031-1.703124-3.457032-.257812-7.628907 3.238282-9.316407 39.75-19.207031 109.261718-2.285156 160.566406 15.289063 3.671875 1.257812 5.621094 5.226562 4.351562 8.859375-1.007812 2.886719-3.734374 4.695312-6.652343 4.695312zm0 0"/></g><path d="m239.09375 463.46875h-211.105469c-2.207031 0-4-1.792969-4-4v-21.75c0-1.644531 1.003907-3.117188 2.535157-3.722656 5.914062-2.335938 145.457031-56.746094 197.371093-19.550782 13.714844 9.828126 20.171875 25.042969 19.195313 45.214844-.105469 2.132813-1.863282 3.808594-3.996094 3.808594zm-207.105469-8h203.199219c-.042969-15.554688-5.28125-26.871094-15.953125-34.519531-44.773437-32.085938-167.996094 12.285156-187.246094 19.523437zm0 0" fill="#3762cc"/><path d="m238.921875 453.84375c-2.058594 0-3.796875-1.574219-3.980469-3.648438-1.242187-13.980468-7.179687-24.074218-18.160156-30.855468-50.585938-31.238282-185.960938 21.578125-187.324219 22.117187-1.226562.488281-2.621093.332031-3.71875-.414062-1.09375-.746094-1.75-1.984375-1.75-3.308594v-235.820313c0-1.640624 1.003907-3.117187 2.53125-3.71875 5.625-2.222656 138.40625-54.003906 193.175781-22.222656 12.441407 7.21875 20.011719 18.183594 22.527344 32.609375.441406.644531.703125 1.425781.703125 2.265625v3c.273438 3.199219.328125 6.566406.160157 10.007813-.015626.332031-.070313.648437-.160157.953125v225.035156c0 2.136719-1.6875 3.898438-3.824219 3.996094-.058593 0-.121093.003906-.179687.003906zm-206.933594-249.175781v227.265625c26.660157-9.917969 140.46875-49.363282 188.992188-19.398438 5.761719 3.554688 10.414062 7.953125 13.945312 13.164063v-202.039063c0-.453125.078125-.894531.21875-1.300781.089844-2.753906.023438-5.433594-.203125-7.984375-.007812-.117188-.015625-.238281-.015625-.355469v-1.449219c-.167969-.355468-.292969-.746093-.351562-1.15625-1.859375-12.894531-8.039063-22.226562-18.886719-28.523437-47.5-27.5625-164.941406 14.726563-183.699219 21.777344zm207.105469 18.992187h.019531zm0 0" fill="#3762cc"/><path d="m450.378906 463.46875h-211.101562c-2.132813 0-3.890625-1.675781-3.996094-3.808594-.980469-20.175781 5.476562-35.386718 19.195312-45.214844 51.910157-37.191406 191.457032 17.21875 197.371094 19.550782 1.527344.605468 2.53125 2.078125 2.53125 3.722656v21.75c0 2.210938-1.789062 4-4 4zm-207.195312-8h203.195312v-14.996094c-19.25-7.238281-142.46875-51.613281-187.246094-19.523437-10.671874 7.648437-15.910156 18.964843-15.949218 34.519531zm0 0" fill="#3762cc"/><path d="m239.445312 453.84375c-.058593 0-.121093 0-.179687-.003906-2.136719-.097656-3.824219-1.859375-3.824219-3.996094v-225.070312c-.089844-.292969-.144531-.597657-.160156-.917969-.167969-3.445313-.117188-6.8125.160156-10.007813v-3c0-.839844.261719-1.625.703125-2.269531 2.515625-14.425781 10.085938-25.390625 22.527344-32.609375 54.765625-31.785156 187.546875 20.003906 193.175781 22.222656 1.527344.601563 2.53125 2.078125 2.53125 3.71875v235.824219c0 1.324219-.65625 2.5625-1.75 3.304687-1.09375.746094-2.488281.902344-3.71875.414063-1.359375-.539063-136.734375-53.355469-187.320312-22.113281-10.980469 6.78125-16.917969 16.871094-18.160156 30.855468-.1875 2.074219-1.921876 3.648438-3.984376 3.648438zm67.75-52.351562c53.179688 0 119.628907 23.164062 139.183594 30.4375v-227.261719c-18.742187-7.046875-136.191406-49.34375-183.691406-21.777344-10.847656 6.296875-17.03125 15.628906-18.890625 28.527344-.0625.410156-.179687.800781-.351563 1.15625v1.449219c0 .117187-.003906.234374-.015624.351562-.230469 2.566406-.296876 5.265625-.203126 8.042969.140626.390625.214844.808593.214844 1.246093v202.035157c3.53125-5.210938 8.183594-9.609375 13.945313-13.164063 12.929687-7.988281 30.496093-11.042968 49.808593-11.042968zm-67.75-187.472657h.019532zm0 0" fill="#3762cc"/><path d="m221.910156 4.003906h-143.855468c-9.980469 0-18.070313 8.089844-18.070313 18.070313v111.855469c0 9.980468 8.089844 18.070312 18.070313 18.070312h43.929687l22.140625 30.875c2.988281 4.167969 8.730469 4.167969 11.71875 0l22.140625-30.875h43.925781c9.984375 0 18.074219-8.09375 18.074219-18.070312v-111.855469c0-9.980469-8.09375-18.070313-18.074219-18.070313zm0 0" fill="#ffea92"/><path d="m463.433594 139.757812-18.171875-18.171874c-2.417969-2.421876-6.335938-2.421876-8.753907 0l-154.09375 154.089843 26.929688 26.929688 154.09375-154.09375c2.414062-2.417969 2.414062-6.335938-.003906-8.753907zm0 0" fill="#a4c9ff"/><path d="m282.414062 275.675781-18.292968 41.875c-1.097656 2.511719.832031 4.441407 3.347656 3.34375l41.875-18.289062zm0 0" fill="#e0ebfc"/><path d="m296.632812 261.457031 26.925782 26.925781-14.214844 14.214844-26.929688-26.925781zm0 0" fill="#f9a7a7"/><path d="m441.203125 184.722656-69.855469 69.855469c-2.101562 2.101563-1.628906 5.976563 1.054688 8.660156 2.683594 2.6875 6.558594 3.15625 8.660156 1.058594l69.859375-69.859375 12.460937-12.464844c4.203126-4.199218 3.253907-11.957031-2.113281-17.328125l-6.984375-6.984375-20.074218 20.070313zm0 0" fill="#a4c9ff"/><path d="m264.121094 317.550781 5.433594-12.441406 10.351562 10.351563-12.4375 5.433593c-2.515625 1.097657-4.445312-.828125-3.347656-3.34375zm0 0" fill="#4671c6"/><path d="m309.34375 306.605469c-1.0625 0-2.078125-.421875-2.828125-1.171875l-26.929687-26.929688c-1.5625-1.5625-1.5625-4.09375 0-5.65625l154.09375-154.089844c3.96875-3.972656 10.433593-3.972656 14.410156 0l18.171875 18.171876c1.925781 1.925781 2.984375 4.484374 2.984375 7.203124 0 2.722657-1.058594 5.28125-2.984375 7.207032l-154.089844 154.09375c-.75.75-1.769531 1.171875-2.828125 1.171875zm-21.273438-30.929688 21.273438 21.269531 151.261719-151.261718c.414062-.414063.640625-.964844.640625-1.550782 0-.582031-.226563-1.132812-.640625-1.542968l-18.171875-18.175782c-.855469-.855468-2.246094-.855468-3.097656 0zm0 0" fill="#3762cc"/><path d="m266.050781 325.214844c-1.675781 0-3.25-.617188-4.441406-1.808594-1.894531-1.894531-2.335937-4.753906-1.152344-7.457031l18.289063-41.878907c.53125-1.210937 1.625-2.082031 2.925781-2.328124 1.300781-.246094 2.632813.164062 3.570313 1.101562l26.929687 26.929688c.933594.933593 1.347656 2.269531 1.101563 3.570312-.246094 1.296875-1.121094 2.390625-2.332032 2.921875l-41.875 18.292969c-1.003906.441406-2.027344.65625-3.015625.65625zm17.683594-42.566406-14.457031 33.089843 33.089844-14.453125zm0 0" fill="#3762cc"/><path d="m377.679688 269.605469c-.398438 0-.804688-.023438-1.210938-.074219-2.519531-.308594-4.964844-1.539062-6.894531-3.464844-4.234375-4.238281-4.710938-10.660156-1.054688-14.3125l67.027344-67.03125-4.160156-4.164062c-1.5625-1.5625-1.5625-4.09375 0-5.65625l20.070312-20.070313c1.5625-1.5625 4.09375-1.5625 5.65625 0l6.984375 6.984375c6.921875 6.921875 7.871094 17.234375 2.117188 22.988282l-82.324219 82.320312c-1.609375 1.605469-3.824219 2.480469-6.210937 2.480469zm62.191406-91.875 4.160156 4.164062c1.5625 1.5625 1.5625 4.09375 0 5.65625l-69.855469 69.855469c-.296875.300781-.207031 1.742188 1.054688 3.003906.660156.660156 1.460937 1.085938 2.207031 1.179688.363281.046875.679688-.003906.792969-.125l82.324219-82.320313c2.589843-2.589843 1.625-7.9375-2.113282-11.675781l-4.15625-4.15625zm0 0" fill="#3762cc"/><path d="m445.1875 121.507812 18.324219 18.324219c.226562.226563.414062.484375.597656.738281l8.589844-8.589843c5.617187-5.621094 5.773437-14.578125.34375-20.007813-5.429688-5.429687-14.386719-5.273437-20.003907.347656l-8.589843 8.589844c.253906.183594.507812.371094.738281.597656zm0 0" fill="#f9a7a7"/><path d="m464.109375 144.570312c-.105469 0-.214844-.003906-.324219-.011718-1.167968-.09375-2.238281-.695313-2.921875-1.648438-.066406-.089844-.125-.183594-.199219-.265625l-18.296874-18.296875c-.082032-.070312-.171876-.128906-.257813-.191406-.953125-.683594-1.554687-1.753906-1.652344-2.921875-.09375-1.171875.332031-2.324219 1.160157-3.148437l8.589843-8.59375c7.167969-7.167969 18.683594-7.324219 25.664063-.34375 6.980468 6.980468 6.828125 18.492187-.34375 25.664062l-8.589844 8.589844c-.753906.75-1.773438 1.167968-2.828125 1.167968zm-13.933594-23.730468 14.003907 14.003906 5.691406-5.691406c4.050781-4.050782 4.203125-10.492188.34375-14.351563s-10.300782-3.703125-14.351563.347657zm0 0" fill="#3762cc"/><path d="m108.824219 19.542969h-9.277344c-.84375 0-1.597656.53125-1.886719 1.328125l-18.859375 52.714844c-.464843 1.300781.5 2.671874 1.886719 2.671874h7.761719c.847656 0 1.605469-.535156 1.886719-1.335937l2.945312-8.367187c.28125-.800782 1.039062-1.335938 1.886719-1.335938h17.949219c.847656 0 1.605468.535156 1.886718 1.335938l2.945313 8.367187c.28125.800781 1.039062 1.335937 1.886719 1.335937h7.84375c1.382812 0 2.347656-1.371093 1.882812-2.671874l-18.859375-52.714844c-.28125-.796875-1.035156-1.328125-1.878906-1.328125zm-10.722657 33.175781 4.183594-11.855469c.628906-1.78125 3.152344-1.777343 3.773438.007813l4.148437 11.855468c.453125 1.300782-.507812 2.660157-1.886719 2.660157h-8.332031c-1.378906 0-2.347656-1.363281-1.886719-2.667969zm0 0" fill="#f9a7a7"/><path d="m204.359375 89.351562.042969-.179687c.160156-.691406-.242188-1.347656-.894532-1.511719l-6.964843-1.765625c-.691407-.175781-1.390625.269531-1.519531.972657l-.207032 1.105468c-.078125.417969-.160156.84375-.25 1.289063-.320312-.003907-.648437-.003907-.992187-.003907-1.152344 0-3.585938.078126-6.550781.605469-.761719.136719-1.46875-.449219-1.460938-1.222656.007812-.746094.023438-1.519531.042969-2.324219.015625-.65625.542969-1.195312 1.195312-1.21875 7.007813-.261718 18.589844-.941406 25.5-2.632812l.917969-.226563c.617188-.148437 1.015625-.742187.933594-1.367187l-.894532-6.78125c-.101562-.738282-.820312-1.222656-1.539062-1.039063l-1.15625.296875c-5.59375 1.4375-16.09375 2.378906-24.46875 2.722656.035156-.527343.066406-1.0625.097656-1.597656.039063-.675781.082032-1.347656.125-2.007812.023438-.378906.238282-.703125.542969-.9375.78125-.621094 1.285156-1.476563 1.382813-2.453125l.113281-1.082031c.070312-.695313-.449219-1.308594-1.148438-1.359376l-9.027343-.628906c-.695313-.050781-1.296876.484375-1.324219 1.183594l-.046875 1.082031c-.097656 2.34375-.183594 4.699219-.25 6.828125-.019532.667969-.570313 1.195313-1.242188 1.195313-4.628906-.007813-9.035156-.039063-11.785156-.199219l-1.152344-.070312c-.726562-.042969-1.335937.546874-1.3125 1.273437l.203125 6.644531c.019531.640625.523438 1.160156 1.164063 1.199219l.960937.058594c2.070313.125 3.261719.140625 11.652344.144531.6875 0 1.246094.566406 1.242187 1.253906-.011718 2.054688.003907 3.9375.039063 5.671875.011719.492188-.273437.929688-.71875 1.132813-10.679687 4.953125-16.976563 13.109375-16.976563 22.160156 0 6.832031 4.257813 11.417969 10.59375 11.417969 3.777344 0 7.796876-1.335938 11.980469-3.984375.226563.4375.460938.84375.703125 1.214844l.5625.878906c.371094.570312 1.128906.738281 1.703125.378906l.929688-.582031c.601562-.375 1.390625-.175781 1.738281.441406l.621094 1.101563c.601562 1.074218 1.449218 2.933593 1.644531 3.621093l.535156 1.867188 1.925781-.214844c23.574219-2.640625 28.523438-13.257813 28.523438-21.695313 0-9.527343-5.359375-16.367187-14.847656-19.191406-.640625-.1875-1.035156-.820312-.886719-1.464844zm-26.222656 24.171876c.097656.484374-.09375.984374-.5 1.265624-2.738281 1.90625-5.320313 2.960938-7.449219 3.007813l-.203125.003906c-.628906 0-2.105469 0-2.105469-2.996093 0-3.878907 2.636719-7.800782 7.128906-10.886719.777344-.535157 1.859376-.023438 1.941407.917969.277343 3.292968.671875 6.175781 1.1875 8.6875zm8.542969-14.53125c.867187-.203126 1.714843-.355469 2.515624-.46875 1.011719-.144532 1.742188.933593 1.257813 1.835937-.675781 1.257813-1.417969 2.492187-2.226563 3.691406-.648437.960938-2.167968.574219-2.265624-.582031-.089844-1.015625-.160157-2.078125-.214844-3.195312-.03125-.589844.359375-1.144532.933594-1.28125zm1.183593 24.160156 2.15625-1.351563c.589844-.371093.757813-1.15625.371094-1.738281l-.601563-.90625c-.21875-.320312-.421874-.664062-.609374-1.023438-.25-.464843-.136719-1.039062.234374-1.414062 4.664063-4.703125 8.589844-10.4375 11.320313-16.550781.25-.558594.875-.871094 1.460937-.695313 5.34375 1.617188 8.066407 4.992188 8.289063 10.1875v.480469c0 9.417969-13.3125 12.113281-21.25 12.878906zm0 0" fill="#f9a7a7"/><path d="m103.351562 132.890625c-1.902343 0-3.8125-.675781-5.335937-2.042969-3.292969-2.953125-3.566406-8.007812-.617187-11.296875l87.25-97.265625c2.953124-3.289062 8.011718-3.5625 11.296874-.613281 3.289063 2.949219 3.566407 8.007813.613282 11.296875l-87.25 97.261719c-1.578125 1.761719-3.761719 2.660156-5.957032 2.660156zm0 0" fill="#6bdddd"/><path d="m149.984375 190.003906c-3.605469 0-6.925781-1.75-9.109375-4.796875l-20.945312-29.203125h-41.875c-12.167969 0-22.070313-9.902344-22.070313-22.074218v-111.855469c0-12.171875 9.902344-22.074219 22.070313-22.074219h143.855468c12.171875 0 22.074219 9.902344 22.074219 22.074219v111.855469c0 12.167968-9.902344 22.070312-22.074219 22.070312h-41.875l-20.941406 29.207031c-2.1875 3.046875-5.503906 4.796875-9.109375 4.796875zm-71.929687-182c-7.757813 0-14.070313 6.3125-14.070313 14.070313v111.855469c0 7.761718 6.3125 14.074218 14.070313 14.074218h43.929687c1.289063 0 2.5.621094 3.25 1.667969l22.140625 30.871094c1.347656 1.878906 3.867188 1.878906 5.21875 0l22.136719-30.871094c.753906-1.050781 1.964843-1.667969 3.25-1.667969h43.929687c7.761719 0 14.070313-6.3125 14.070313-14.074218v-111.855469c0-7.761719-6.308594-14.074219-14.070313-14.074219h-143.855468zm0 0" fill="#3762cc"/></svg>